<svg xmlns="http://www.w3.org/2000/svg" xmlns:xlink="http://www.w3.org/1999/xlink" id="processonSvg1000" viewBox="1.0 11.0 878.6626016260162 464.0" width="878.6626016260162" height="464.0"><defs id="ProcessOnDefs1001"><marker id="ProcessOnMarker1054" markerUnits="userSpaceOnUse" orient="auto" markerWidth="16.23606797749979" markerHeight="10.550836550532098" viewBox="-1.0 -1.3763819204711736 16.23606797749979 10.550836550532098" refX="-1.0" refY="3.8990363547948754"><path id="ProcessOnPath1055" d="M12.0 3.8990363547948754L0.0 7.798072709589751V0.0Z" stroke="#323232" stroke-width="2.0" fill="#323232" transform="matrix(1.0,0.0,0.0,1.0,0.0,0.0)"/></marker><marker id="ProcessOnMarker1061" markerUnits="userSpaceOnUse" orient="auto" markerWidth="16.23606797749979" markerHeight="10.550836550532098" viewBox="-1.0 -1.3763819204711736 16.23606797749979 10.550836550532098" refX="-1.0" refY="3.8990363547948754"><path id="ProcessOnPath1062" d="M12.0 3.8990363547948754L0.0 7.798072709589751V0.0Z" stroke="#323232" stroke-width="2.0" fill="#323232" transform="matrix(1.0,0.0,0.0,1.0,0.0,0.0)"/></marker><marker id="ProcessOnMarker1072" markerUnits="userSpaceOnUse" orient="auto" markerWidth="16.23606797749979" markerHeight="10.550836550532098" viewBox="-1.0 -1.3763819204711736 16.23606797749979 10.550836550532098" refX="-1.0" refY="3.8990363547948754"><path id="ProcessOnPath1073" d="M12.0 3.8990363547948754L0.0 7.798072709589751V0.0Z" stroke="#323232" stroke-width="2.0" fill="#323232" transform="matrix(1.0,0.0,0.0,1.0,0.0,0.0)"/></marker><marker id="ProcessOnMarker1083" markerUnits="userSpaceOnUse" orient="auto" markerWidth="16.23606797749979" markerHeight="10.550836550532098" viewBox="-1.0 -1.3763819204711736 16.23606797749979 10.550836550532098" refX="-1.0" refY="3.8990363547948754"><path id="ProcessOnPath1084" d="M12.0 3.8990363547948754L0.0 7.798072709589751V0.0Z" stroke="#323232" stroke-width="2.0" fill="#323232" transform="matrix(1.0,0.0,0.0,1.0,0.0,0.0)"/></marker><marker id="ProcessOnMarker1095" markerUnits="userSpaceOnUse" orient="auto" markerWidth="16.23606797749979" markerHeight="10.550836550532098" viewBox="-1.0 -1.3763819204711736 16.23606797749979 10.550836550532098" refX="-1.0" refY="3.8990363547948754"><path id="ProcessOnPath1096" d="M12.0 3.8990363547948754L0.0 7.798072709589751V0.0Z" stroke="#323232" stroke-width="2.0" fill="#323232" transform="matrix(1.0,0.0,0.0,1.0,0.0,0.0)"/></marker><marker id="ProcessOnMarker1102" markerUnits="userSpaceOnUse" orient="auto" markerWidth="16.23606797749979" markerHeight="10.550836550532098" viewBox="-1.0 -1.3763819204711736 16.23606797749979 10.550836550532098" refX="-1.0" refY="3.8990363547948754"><path id="ProcessOnPath1103" d="M12.0 3.8990363547948754L0.0 7.798072709589751V0.0Z" stroke="#323232" stroke-width="2.0" fill="#323232" transform="matrix(1.0,0.0,0.0,1.0,0.0,0.0)"/></marker><marker id="ProcessOnMarker1111" markerUnits="userSpaceOnUse" orient="auto" markerWidth="16.23606797749979" markerHeight="10.550836550532098" viewBox="-1.0 -1.3763819204711736 16.23606797749979 10.550836550532098" refX="-1.0" refY="3.8990363547948754"><path id="ProcessOnPath1112" d="M12.0 3.8990363547948754L0.0 7.798072709589751V0.0Z" stroke="#323232" stroke-width="2.0" fill="#323232" transform="matrix(1.0,0.0,0.0,1.0,0.0,0.0)"/></marker><marker id="ProcessOnMarker1128" markerUnits="userSpaceOnUse" orient="auto" markerWidth="16.23606797749979" markerHeight="10.550836550532098" viewBox="-1.0 -1.3763819204711736 16.23606797749979 10.550836550532098" refX="-1.0" refY="3.8990363547948754"><path id="ProcessOnPath1129" d="M12.0 3.8990363547948754L0.0 7.798072709589751V0.0Z" stroke="#323232" stroke-width="2.0" fill="#323232" transform="matrix(1.0,0.0,0.0,1.0,0.0,0.0)"/></marker><marker id="ProcessOnMarker1132" markerUnits="userSpaceOnUse" orient="auto" markerWidth="16.23606797749979" markerHeight="10.550836550532098" viewBox="-1.0 -1.3763819204711736 16.23606797749979 10.550836550532098" refX="-1.0" refY="3.8990363547948754"><path id="ProcessOnPath1133" d="M12.0 3.8990363547948754L0.0 7.798072709589751V0.0Z" stroke="#323232" stroke-width="2.0" fill="#323232" transform="matrix(1.0,0.0,0.0,1.0,0.0,0.0)"/></marker><marker id="ProcessOnMarker1143" markerUnits="userSpaceOnUse" orient="auto" markerWidth="16.23606797749979" markerHeight="10.550836550532098" viewBox="-1.0 -1.3763819204711736 16.23606797749979 10.550836550532098" refX="-1.0" refY="3.8990363547948754"><path id="ProcessOnPath1144" d="M12.0 3.8990363547948754L0.0 7.798072709589751V0.0Z" stroke="#323232" stroke-width="2.0" fill="#323232" transform="matrix(1.0,0.0,0.0,1.0,0.0,0.0)"/></marker></defs><g id="ProcessOnG1002"><path id="ProcessOnPath1003" d="M1.0 11.0H879.6626016260162V475.0H1.0V11.0Z" fill="none"/><g id="ProcessOnG1004"><g id="ProcessOnG1005" transform="matrix(1.0,0.0,0.0,1.0,237.0,66.0)" opacity="1.0"><path id="ProcessOnPath1006" d="M0.0 0.0L270.0 0.0L270.0 389.0L0.0 389.0Z" stroke="#323232" stroke-width="2.0" stroke-dasharray="none" opacity="1.0" fill="#ffffff"/></g><g id="ProcessOnG1007" transform="matrix(1.0,0.0,0.0,1.0,256.0,31.0)" opacity="1.0"><path id="ProcessOnPath1008" d="M0.0 0.0L220.0 0.0L220.0 27.0L0.0 27.0Z" stroke="none" stroke-width="0.0" stroke-dasharray="none" opacity="1.0" fill="none"/><g id="ProcessOnG1009" transform="matrix(1.0,0.0,0.0,1.0,0.0,5.375)"><text id="ProcessOnText1010" fill="#000000" font-size="13" x="109.0" y="13.325" font-family="微软雅黑" font-weight="normal" font-style="normal" text-decoration="none" family="微软雅黑" text-anchor="middle" size="13">${dfs.namenode.name.dir}</text></g></g><g id="ProcessOnG1011" transform="matrix(1.0,0.0,0.0,1.0,244.0,74.0)" opacity="1.0"><path id="ProcessOnPath1012" d="M0.0 0.0L256.0 0.0L256.0 35.0L0.0 35.0Z" stroke="none" stroke-width="0.0" stroke-dasharray="none" opacity="1.0" fill="#ccccff"/><g id="ProcessOnG1013" transform="matrix(1.0,0.0,0.0,1.0,10.0,1.25)"><text id="ProcessOnText1014" fill="#000000" font-size="13" x="117.0" y="13.325" font-family="微软雅黑" font-weight="normal" font-style="normal" text-decoration="none" family="微软雅黑" text-anchor="middle" size="13">上一次的编辑日志</text><text id="ProcessOnText1015" fill="#000000" font-size="13" x="117.0" y="29.575" font-family="微软雅黑" font-weight="normal" font-style="normal" text-decoration="none" family="微软雅黑" text-anchor="middle" size="13">edits_0...10</text></g></g><g id="ProcessOnG1016" transform="matrix(1.0,0.0,0.0,1.0,244.0,115.0)" opacity="1.0"><path id="ProcessOnPath1017" d="M0.0 0.0L256.0 0.0L256.0 37.0L0.0 37.0Z" stroke="none" stroke-width="0.0" stroke-dasharray="none" opacity="1.0" fill="#ffffaa"/><g id="ProcessOnG1018" transform="matrix(1.0,0.0,0.0,1.0,10.0,2.25)"><text id="ProcessOnText1019" fill="#000000" font-size="13" x="117.0" y="13.325" font-family="微软雅黑" font-weight="normal" font-style="normal" text-decoration="none" family="微软雅黑" text-anchor="middle" size="13">当前编辑日志</text><text id="ProcessOnText1020" fill="#000000" font-size="13" x="117.0" y="29.575" font-family="微软雅黑" font-weight="normal" font-style="normal" text-decoration="none" family="微软雅黑" text-anchor="middle" size="13">edits_inprogress_...11</text></g></g><g id="ProcessOnG1021" transform="matrix(1.0,0.0,0.0,1.0,683.0,41.0)" opacity="1.0"><path id="ProcessOnPath1022" d="M0.0 0.0L176.0 0.0L176.0 131.0L0.0 131.0Z" stroke="none" stroke-width="0.0" stroke-dasharray="none" opacity="1.0" fill="#ffffaa"/><g id="ProcessOnG1023" transform="matrix(1.0,0.0,0.0,1.0,10.0,0.5)"><text id="ProcessOnText1024" fill="#000000" font-size="13" x="0.0" y="13.325" font-family="微软雅黑" font-weight="normal" font-style="normal" text-decoration="none" family="微软雅黑" text-anchor="start" size="13"> &lt;RECODE&gt;      </text><text id="ProcessOnText1025" fill="#000000" font-size="13" x="0.0" y="29.575" font-family="微软雅黑" font-weight="normal" font-style="normal" text-decoration="none" family="微软雅黑" text-anchor="start" size="13">       &lt;TXID&gt;11&lt;/TXID&gt;</text><text id="ProcessOnText1026" fill="#000000" font-size="13" x="0.0" y="45.825" font-family="微软雅黑" font-weight="normal" font-style="normal" text-decoration="none" family="微软雅黑" text-anchor="start" size="13">&lt;/RECODE&gt;</text><text id="ProcessOnText1027" fill="#000000" font-size="13" x="0.0" y="62.075" font-family="微软雅黑" font-weight="normal" font-style="normal" text-decoration="none" family="微软雅黑" text-anchor="start" size="13">    //省略很多事务</text><text id="ProcessOnText1028" fill="#000000" font-size="13" x="0.0" y="78.325" font-family="微软雅黑" font-weight="normal" font-style="normal" text-decoration="none" family="微软雅黑" text-anchor="start" size="13">&lt;RECODE&gt;</text><text id="ProcessOnText1029" fill="#000000" font-size="13" x="0.0" y="94.575" font-family="微软雅黑" font-weight="normal" font-style="normal" text-decoration="none" family="微软雅黑" text-anchor="start" size="13">       &lt;TXID&gt;30&lt;/TXID&gt;</text><text id="ProcessOnText1030" fill="#000000" font-size="13" x="0.0" y="110.825" font-family="微软雅黑" font-weight="normal" font-style="normal" text-decoration="none" family="微软雅黑" text-anchor="start" size="13">&lt;/RECODE&gt;</text><text id="ProcessOnText1031" fill="#000000" font-size="13" x="0.0" y="127.075" font-family="微软雅黑" font-weight="normal" font-style="normal" text-decoration="none" family="微软雅黑" text-anchor="start" size="13"></text></g></g><g id="ProcessOnG1032"><path id="ProcessOnPath1033" d="M500.0 133.5L591.5 133.5L591.5 106.5L683.0 106.5" stroke="#323232" stroke-width="2.0" stroke-dasharray="2.0 3.0" fill="none"/><g id="ProcessOnG1034" transform="matrix(1.0,0.0,0.0,1.0,591.5,111.875)"><path id="ProcessOnPath1035" d="M0 0H65.0V16.25H0Z" fill="#fff" transform="matrix(1.0,0.0,0.0,1.0,-32.5,0.0)"/><text id="ProcessOnText1036" fill="#000000" font-size="13" x="0.0" y="13.325" font-family="微软雅黑" font-weight="normal" font-style="normal" text-decoration="none" family="微软雅黑" text-anchor="middle" size="13">里面的内容</text></g></g><g id="ProcessOnG1037" transform="matrix(1.0,0.0,0.0,1.0,244.0,162.0)" opacity="1.0"><path id="ProcessOnPath1038" d="M0.0 0.0L256.0 0.0L256.0 39.0L0.0 39.0Z" stroke="none" stroke-width="0.0" stroke-dasharray="none" opacity="1.0" fill="#ffffaa"/><g id="ProcessOnG1039" transform="matrix(1.0,0.0,0.0,1.0,10.0,3.25)"><text id="ProcessOnText1040" fill="#000000" font-size="13" x="117.0" y="13.325" font-family="微软雅黑" font-weight="normal" font-style="normal" text-decoration="none" family="微软雅黑" text-anchor="middle" size="13">上一次的无数据镜像文件</text><text id="ProcessOnText1041" fill="#000000" font-size="13" x="117.0" y="29.575" font-family="微软雅黑" font-weight="normal" font-style="normal" text-decoration="none" family="微软雅黑" text-anchor="middle" size="13">fsimage_10</text></g></g><g id="ProcessOnG1042" transform="matrix(1.0,0.0,0.0,1.0,586.0,201.0)" opacity="1.0"><path id="ProcessOnPath1043" d="M0.0 0.0L273.0 0.0L273.0 251.0L0.0 251.0Z" stroke="#323232" stroke-width="2.0" stroke-dasharray="none" opacity="1.0" fill="#ffffff"/></g><g id="ProcessOnG1044" transform="matrix(1.0,0.0,0.0,1.0,604.0,172.0)" opacity="1.0"><path id="ProcessOnPath1045" d="M0.0 0.0L242.0 0.0L242.0 25.0L0.0 25.0Z" stroke="none" stroke-width="0.0" stroke-dasharray="none" opacity="1.0" fill="none"/><g id="ProcessOnG1046" transform="matrix(1.0,0.0,0.0,1.0,0.0,4.375)"><text id="ProcessOnText1047" fill="#000000" font-size="13" x="120.0" y="13.325" font-family="微软雅黑" font-weight="normal" font-style="normal" text-decoration="none" family="微软雅黑" text-anchor="middle" size="13">内存</text></g></g><g id="ProcessOnG1048" transform="matrix(1.0,0.0,0.0,1.0,28.0,197.0)" opacity="1.0"><path id="ProcessOnPath1049" d="M0.0 0.0L137.0 0.0L137.0 35.0L0.0 35.0Z" stroke="none" stroke-width="0.0" stroke-dasharray="none" opacity="1.0" fill="#ffffaa"/><g id="ProcessOnG1050" transform="matrix(1.0,0.0,0.0,1.0,10.0,9.375)"><text id="ProcessOnText1051" fill="#000000" font-size="13" x="57.5" y="13.325" font-family="微软雅黑" font-weight="normal" font-style="normal" text-decoration="none" family="微软雅黑" text-anchor="middle" size="13">namenode</text></g></g><g id="ProcessOnG1052"><path id="ProcessOnPath1053" d="M96.5 197.0L96.5 133.5L228.7639320225002 133.5" stroke="#323232" stroke-width="2.0" stroke-dasharray="none" fill="none" marker-end="url(#ProcessOnMarker1054)"/><g id="ProcessOnG1056" transform="matrix(1.0,0.0,0.0,1.0,130.88196601125009,125.375)"><path id="ProcessOnPath1057" d="M0 0H37.0V16.25H0Z" fill="#fff" transform="matrix(1.0,0.0,0.0,1.0,-18.5,0.0)"/><text id="ProcessOnText1058" fill="#000000" font-size="13" x="0.0" y="13.325" font-family="微软雅黑" font-weight="normal" font-style="normal" text-decoration="none" family="微软雅黑" text-anchor="middle" size="13">1:启动</text></g></g><g id="ProcessOnG1059"><path id="ProcessOnPath1060" d="M96.5 197.0L96.5 181.5L228.7639320225002 181.5" stroke="#323232" stroke-width="2.0" stroke-dasharray="none" fill="none" marker-end="url(#ProcessOnMarker1061)"/><g id="ProcessOnG1063" transform="matrix(1.0,0.0,0.0,1.0,154.88196601125009,173.375)"><path id="ProcessOnPath1064" d="M0 0H47.0V16.25H0Z" fill="#fff" transform="matrix(1.0,0.0,0.0,1.0,-23.5,0.0)"/><text id="ProcessOnText1065" fill="#000000" font-size="13" x="0.0" y="13.325" font-family="微软雅黑" font-weight="normal" font-style="normal" text-decoration="none" family="微软雅黑" text-anchor="middle" size="13">1：启动</text></g></g><g id="ProcessOnG1066" transform="matrix(1.0,0.0,0.0,1.0,604.0,284.5)" opacity="1.0"><path id="ProcessOnPath1067" d="M0.0 0.0L202.0 0.0L202.0 28.5L0.0 28.5Z" stroke="none" stroke-width="0.0" stroke-dasharray="none" opacity="1.0" fill="#ffffaa"/><g id="ProcessOnG1068" transform="matrix(1.0,0.0,0.0,1.0,10.0,6.125)"><text id="ProcessOnText1069" fill="#000000" font-size="13" x="90.0" y="13.325" font-family="微软雅黑" font-weight="normal" font-style="normal" text-decoration="none" family="微软雅黑" text-anchor="middle" size="13">fsimage_10</text></g></g><g id="ProcessOnG1070"><path id="ProcessOnPath1071" d="M500.0 181.5L552.0 181.5L552.0 298.75L588.7639320225002 298.75" stroke="#323232" stroke-width="2.0" stroke-dasharray="none" fill="none" marker-end="url(#ProcessOnMarker1072)"/><g id="ProcessOnG1074" transform="matrix(1.0,0.0,0.0,1.0,552.0,224.38196601125009)"><path id="ProcessOnPath1075" d="M0 0H63.0V16.25H0Z" fill="#fff" transform="matrix(1.0,0.0,0.0,1.0,-31.5,0.0)"/><text id="ProcessOnText1076" fill="#000000" font-size="13" x="0.0" y="13.325" font-family="微软雅黑" font-weight="normal" font-style="normal" text-decoration="none" family="微软雅黑" text-anchor="middle" size="13">2:载入内存</text></g></g><g id="ProcessOnG1077" transform="matrix(1.0,0.0,0.0,1.0,600.0,219.5)" opacity="1.0"><path id="ProcessOnPath1078" d="M0.0 0.0L224.0 0.0L224.0 37.5L0.0 37.5Z" stroke="none" stroke-width="0.0" stroke-dasharray="none" opacity="1.0" fill="#ffffaa"/><g id="ProcessOnG1079" transform="matrix(1.0,0.0,0.0,1.0,10.0,10.625)"><text id="ProcessOnText1080" fill="#000000" font-size="13" x="101.0" y="13.325" font-family="微软雅黑" font-weight="normal" font-style="normal" text-decoration="none" family="微软雅黑" text-anchor="middle" size="13">edist_inprogress_11</text></g></g><g id="ProcessOnG1081"><path id="ProcessOnPath1082" d="M499.36184427528457 149.94787914004598L654.0 149.94787914004598L654.0 204.7639320225002" stroke="#323232" stroke-width="2.0" stroke-dasharray="none" fill="none" marker-end="url(#ProcessOnMarker1083)"/><g id="ProcessOnG1085" transform="matrix(1.0,0.0,0.0,1.0,604.0889485788693,141.82287914004598)"><path id="ProcessOnPath1086" d="M0 0H89.0V16.25H0Z" fill="#fff" transform="matrix(1.0,0.0,0.0,1.0,-44.5,0.0)"/><text id="ProcessOnText1087" fill="#000000" font-size="13" x="0.0" y="13.325" font-family="微软雅黑" font-weight="normal" font-style="normal" text-decoration="none" family="微软雅黑" text-anchor="middle" size="13">3:顺序执行事务</text></g></g><g id="ProcessOnG1088" transform="matrix(1.0,0.0,0.0,1.0,604.0,397.0)" opacity="1.0"><path id="ProcessOnPath1089" d="M0.0 0.0L242.0 0.0L242.0 34.0L0.0 34.0Z" stroke="none" stroke-width="0.0" stroke-dasharray="none" opacity="1.0" fill="#ffffaa"/><g id="ProcessOnG1090" transform="matrix(1.0,0.0,0.0,1.0,10.0,0.75)"><text id="ProcessOnText1091" fill="#000000" font-size="13" x="110.0" y="13.325" font-family="微软雅黑" font-weight="normal" font-style="normal" text-decoration="none" family="微软雅黑" text-anchor="middle" size="13">合并成新的内存元数据</text><text id="ProcessOnText1092" fill="#000000" font-size="13" x="110.0" y="29.575" font-family="微软雅黑" font-weight="normal" font-style="normal" text-decoration="none" family="微软雅黑" text-anchor="middle" size="13">fsimage_30</text></g></g><g id="ProcessOnG1093"><path id="ProcessOnPath1094" d="M824.0 238.25L836.1626016260162 238.25L836.1626016260162 381.7639320225002" stroke="#323232" stroke-width="2.0" stroke-dasharray="none" fill="none" marker-end="url(#ProcessOnMarker1095)"/><g id="ProcessOnG1097" transform="matrix(1.0,0.0,0.0,1.0,836.1626016260162,295.800665198242)"><path id="ProcessOnPath1098" d="M0 0H47.0V16.25H0Z" fill="#fff" transform="matrix(1.0,0.0,0.0,1.0,-23.5,0.0)"/><text id="ProcessOnText1099" fill="#000000" font-size="13" x="0.0" y="13.325" font-family="微软雅黑" font-weight="normal" font-style="normal" text-decoration="none" family="微软雅黑" text-anchor="middle" size="13">3：合并</text></g></g><g id="ProcessOnG1100"><path id="ProcessOnPath1101" d="M806.0 298.75L837.1463414634146 298.75L837.1463414634146 381.7639320225002" stroke="#323232" stroke-width="2.0" stroke-dasharray="none" fill="none" marker-end="url(#ProcessOnMarker1102)"/></g><g id="ProcessOnG1104" transform="matrix(1.0,0.0,0.0,1.0,247.0,396.0)" opacity="1.0"><path id="ProcessOnPath1105" d="M0.0 0.0L250.0 0.0L250.0 36.0L0.0 36.0Z" stroke="none" stroke-width="0.0" stroke-dasharray="none" opacity="1.0" fill="#ccccff"/><g id="ProcessOnG1106" transform="matrix(1.0,0.0,0.0,1.0,10.0,1.75)"><text id="ProcessOnText1107" fill="#000000" font-size="13" x="114.0" y="13.325" font-family="微软雅黑" font-weight="normal" font-style="normal" text-decoration="none" family="微软雅黑" text-anchor="middle" size="13">保存成文件内存元数据的镜像</text><text id="ProcessOnText1108" fill="#000000" font-size="13" x="114.0" y="29.575" font-family="微软雅黑" font-weight="normal" font-style="normal" text-decoration="none" family="微软雅黑" text-anchor="middle" size="13">fsimage_30</text></g></g><g id="ProcessOnG1109"><path id="ProcessOnPath1110" d="M604.0 414.0L550.5 414.0L550.5 414.0L512.2360679774998 414.0" stroke="#323232" stroke-width="2.0" stroke-dasharray="none" fill="none" marker-end="url(#ProcessOnMarker1111)"/><g id="ProcessOnG1113" transform="matrix(1.0,0.0,0.0,1.0,558.1180339887499,405.875)"><path id="ProcessOnPath1114" d="M0 0H37.0V16.25H0Z" fill="#fff" transform="matrix(1.0,0.0,0.0,1.0,-18.5,0.0)"/><text id="ProcessOnText1115" fill="#000000" font-size="13" x="0.0" y="13.325" font-family="微软雅黑" font-weight="normal" font-style="normal" text-decoration="none" family="微软雅黑" text-anchor="middle" size="13">4:保存</text></g></g><g id="ProcessOnG1116" transform="matrix(1.0,0.0,0.0,1.0,247.0,278.0)" opacity="1.0"><path id="ProcessOnPath1117" d="M0.0 0.0L250.0 0.0L250.0 36.25L0.0 36.25Z" stroke="none" stroke-width="0.0" stroke-dasharray="none" opacity="1.0" fill="#ccccff"/><g id="ProcessOnG1118" transform="matrix(1.0,0.0,0.0,1.0,10.0,1.875)"><text id="ProcessOnText1119" fill="#000000" font-size="13" x="114.0" y="13.325" font-family="微软雅黑" font-weight="normal" font-style="normal" text-decoration="none" family="微软雅黑" text-anchor="middle" size="13">创建历史日志文件</text><text id="ProcessOnText1120" fill="#000000" font-size="13" x="114.0" y="29.575" font-family="微软雅黑" font-weight="normal" font-style="normal" text-decoration="none" family="微软雅黑" text-anchor="middle" size="13">edits_11..30</text></g></g><g id="ProcessOnG1121" transform="matrix(1.0,0.0,0.0,1.0,250.0,329.5)" opacity="1.0"><path id="ProcessOnPath1122" d="M0.0 0.0L244.0 0.0L244.0 39.5L0.0 39.5Z" stroke="none" stroke-width="0.0" stroke-dasharray="none" opacity="1.0" fill="#ccccff"/><g id="ProcessOnG1123" transform="matrix(1.0,0.0,0.0,1.0,10.0,3.5)"><text id="ProcessOnText1124" fill="#000000" font-size="13" x="111.0" y="13.325" font-family="微软雅黑" font-weight="normal" font-style="normal" text-decoration="none" family="微软雅黑" text-anchor="middle" size="13">创建新的正在编辑的日志文件</text><text id="ProcessOnText1125" fill="#000000" font-size="13" x="111.0" y="29.575" font-family="微软雅黑" font-weight="normal" font-style="normal" text-decoration="none" family="微软雅黑" text-anchor="middle" size="13">edits_inprogress_31</text></g></g><g id="ProcessOnG1126"><path id="ProcessOnPath1127" d="M165.0 214.5L206.0 214.5L206.0 296.125L231.7639320225002 296.125" stroke="#323232" stroke-width="2.0" stroke-dasharray="none" fill="none" marker-end="url(#ProcessOnMarker1128)"/></g><g id="ProcessOnG1130"><path id="ProcessOnPath1131" d="M165.0 214.5L207.5 214.5L207.5 349.25L234.7639320225002 349.25" stroke="#323232" stroke-width="2.0" stroke-dasharray="none" fill="none" marker-end="url(#ProcessOnMarker1132)"/><g id="ProcessOnG1134" transform="matrix(1.0,0.0,0.0,1.0,207.5,266.1319660112501)"><path id="ProcessOnPath1135" d="M0 0H47.0V16.25H0Z" fill="#fff" transform="matrix(1.0,0.0,0.0,1.0,-23.5,0.0)"/><text id="ProcessOnText1136" fill="#000000" font-size="13" x="0.0" y="13.325" font-family="微软雅黑" font-weight="normal" font-style="normal" text-decoration="none" family="微软雅黑" text-anchor="middle" size="13">5：创建</text></g></g><g id="ProcessOnG1137" transform="matrix(1.0,0.0,0.0,1.0,21.0,299.25)" opacity="1.0"><path id="ProcessOnPath1138" d="M0.0 0.0L151.0 0.0L151.0 30.25L0.0 30.25Z" stroke="none" stroke-width="0.0" stroke-dasharray="none" opacity="1.0" fill="#ffffaa"/><g id="ProcessOnG1139" transform="matrix(1.0,0.0,0.0,1.0,10.0,7.0)"><text id="ProcessOnText1140" fill="#000000" font-size="13" x="64.5" y="13.325" font-family="微软雅黑" font-weight="normal" font-style="normal" text-decoration="none" family="微软雅黑" text-anchor="middle" size="13">退出安全模式</text></g></g><g id="ProcessOnG1141"><path id="ProcessOnPath1142" d="M96.5 232.0L96.5 265.625L96.5 265.625L96.5 284.0139320225002" stroke="#323232" stroke-width="2.0" stroke-dasharray="none" fill="none" marker-end="url(#ProcessOnMarker1143)"/><g id="ProcessOnG1145" transform="matrix(1.0,0.0,0.0,1.0,96.5,249.88196601125014)"><path id="ProcessOnPath1146" d="M0 0H120.0V16.25H0Z" fill="#fff" transform="matrix(1.0,0.0,0.0,1.0,-60.0,0.0)"/><text id="ProcessOnText1147" fill="#000000" font-size="13" x="0.0" y="13.325" font-family="微软雅黑" font-weight="normal" font-style="normal" text-decoration="none" family="微软雅黑" text-anchor="middle" size="13">6：safe mode leave</text></g></g><g id="ProcessOnG1148" transform="matrix(1.0,0.0,0.0,1.0,36.0,34.0)" opacity="1.0"><path id="ProcessOnPath1149" d="M0.0 0.0L173.0 0.0L189.0 16.0L189.0 32.0L0.0 32.0L0.0 0.0Z" stroke="none" stroke-width="0.0" stroke-dasharray="none" opacity="1.0" fill="#ffffaa"/><path id="ProcessOnPath1150" d="M173.0 0.0L173.0 16.0L189.0 16.0Z" stroke="none" stroke-width="0.0" stroke-dasharray="none" opacity="1.0" fill="#cdcd78"/><path id="ProcessOnPath1151" d="M0.0 0.0L173.0 0.0L189.0 16.0L189.0 32.0L0.0 32.0L0.0 0.0Z" stroke="none" stroke-width="0.0" stroke-dasharray="none" opacity="1.0" fill="none"/><g id="ProcessOnG1152" transform="matrix(1.0,0.0,0.0,1.0,10.0,7.875)"><text id="ProcessOnText1153" fill="#000000" font-size="13" x="83.5" y="13.325" font-family="微软雅黑" font-weight="normal" font-style="normal" text-decoration="none" family="微软雅黑" text-anchor="middle" size="13">NameNode启动过程</text></g></g></g></g></svg>