<svg xmlns="http://www.w3.org/2000/svg" xmlns:xlink="http://www.w3.org/1999/xlink" id="processonSvg1000" viewBox="15.0 12.0 921.0 441.0" width="921.0" height="441.0"><defs id="ProcessOnDefs1001"><marker id="ProcessOnMarker1031" markerUnits="userSpaceOnUse" orient="auto" markerWidth="16.23606797749979" markerHeight="10.550836550532098" viewBox="-1.0 -1.3763819204711736 16.23606797749979 10.550836550532098" refX="-1.0" refY="3.8990363547948754"><path id="ProcessOnPath1032" d="M12.0 3.8990363547948754L0.0 7.798072709589751V0.0Z" stroke="#323232" stroke-width="2.0" fill="#323232" transform="matrix(1.0,0.0,0.0,1.0,0.0,0.0)"/></marker><marker id="ProcessOnMarker1065" markerUnits="userSpaceOnUse" orient="auto" markerWidth="16.23606797749979" markerHeight="10.550836550532098" viewBox="-1.0 -1.3763819204711736 16.23606797749979 10.550836550532098" refX="-1.0" refY="3.8990363547948754"><path id="ProcessOnPath1066" d="M12.0 3.8990363547948754L0.0 7.798072709589751V0.0Z" stroke="#323232" stroke-width="2.0" fill="#323232" transform="matrix(1.0,0.0,0.0,1.0,0.0,0.0)"/></marker><marker id="ProcessOnMarker1072" markerUnits="userSpaceOnUse" orient="auto" markerWidth="16.23606797749979" markerHeight="10.550836550532098" viewBox="-1.0 -1.3763819204711736 16.23606797749979 10.550836550532098" refX="-1.0" refY="3.8990363547948754"><path id="ProcessOnPath1073" d="M12.0 3.8990363547948754L0.0 7.798072709589751V0.0Z" stroke="#323232" stroke-width="2.0" fill="#323232" transform="matrix(1.0,0.0,0.0,1.0,0.0,0.0)"/></marker><marker id="ProcessOnMarker1076" markerUnits="userSpaceOnUse" orient="auto" markerWidth="16.23606797749979" markerHeight="10.550836550532098" viewBox="-1.0 -1.3763819204711736 16.23606797749979 10.550836550532098" refX="-1.0" refY="3.8990363547948754"><path id="ProcessOnPath1077" d="M12.0 3.8990363547948754L0.0 7.798072709589751V0.0Z" stroke="#323232" stroke-width="2.0" fill="#323232" transform="matrix(1.0,0.0,0.0,1.0,0.0,0.0)"/></marker></defs><g id="ProcessOnG1002"><path id="ProcessOnPath1003" d="M15.0 12.0H936.0V453.0H15.0V12.0Z" fill="none"/><g id="ProcessOnG1004"><g id="ProcessOnG1005" transform="matrix(1.0,0.0,0.0,1.0,35.0,185.0)" opacity="1.0"><path id="ProcessOnPath1006" d="M0.0 0.0L211.0 0.0L211.0 30.0L0.0 30.0Z" stroke="#323232" stroke-width="2.0" stroke-dasharray="none" opacity="1.0" fill="#ffffff"/><g id="ProcessOnG1007" transform="matrix(1.0,0.0,0.0,1.0,10.0,6.875)"><text id="ProcessOnText1008" fill="#000000" font-size="13" x="94.5" y="13.325" font-family="微软雅黑" font-weight="normal" font-style="normal" text-decoration="none" family="微软雅黑" text-anchor="middle" size="13">HTable,SPLITS=&gt;["10","20"]</text></g></g><g id="ProcessOnG1009" transform="matrix(1.0,0.0,0.0,1.0,333.0,91.0)" opacity="1.0"><path id="ProcessOnPath1010" d="M0.0 0.0L374.0 0.0L374.0 342.0L0.0 342.0Z" stroke="#323232" stroke-width="2.0" stroke-dasharray="none" opacity="1.0" fill="#ffffff"/></g><g id="ProcessOnG1011" transform="matrix(1.0,0.0,0.0,1.0,337.0,63.0)" opacity="1.0"><path id="ProcessOnPath1012" d="M0.0 0.0L358.0 0.0L358.0 22.0L0.0 22.0Z" stroke="none" stroke-width="0.0" stroke-dasharray="none" opacity="1.0" fill="none"/><g id="ProcessOnG1013" transform="matrix(1.0,0.0,0.0,1.0,0.0,2.875)"><text id="ProcessOnText1014" fill="#000000" font-size="13" x="178.0" y="13.325" font-family="微软雅黑" font-weight="normal" font-style="normal" text-decoration="none" family="微软雅黑" text-anchor="middle" size="13">namespace : eg=&gt;default,某个命名空间，如默认命名空间</text></g></g><g id="ProcessOnG1015" transform="matrix(1.0,0.0,0.0,1.0,351.0,129.0)" opacity="1.0"><path id="ProcessOnPath1016" d="M0.0 0.0L348.0 0.0L348.0 247.0L0.0 247.0Z" stroke="#323232" stroke-width="2.0" stroke-dasharray="none" opacity="1.0" fill="#ffffff"/></g><g id="ProcessOnG1017" transform="matrix(1.0,0.0,0.0,1.0,347.0,98.0)" opacity="1.0"><path id="ProcessOnPath1018" d="M0.0 0.0L346.0 0.0L346.0 26.0L0.0 26.0Z" stroke="none" stroke-width="0.0" stroke-dasharray="none" opacity="1.0" fill="none"/><g id="ProcessOnG1019" transform="matrix(1.0,0.0,0.0,1.0,0.0,4.875)"><text id="ProcessOnText1020" fill="#000000" font-size="13" x="0.0" y="13.325" font-family="微软雅黑" font-weight="normal" font-style="normal" text-decoration="none" family="微软雅黑" text-anchor="start" size="13">htable director  =&gt; table，以表名的目录</text></g></g><g id="ProcessOnG1021" transform="matrix(1.0,0.0,0.0,1.0,354.0,395.0)" opacity="1.0"><path id="ProcessOnPath1022" d="M0.0 0.0L342.0 0.0L342.0 24.0L0.0 24.0Z" stroke="#323232" stroke-width="2.0" stroke-dasharray="none" opacity="1.0" fill="#ffffff"/><g id="ProcessOnG1023" transform="matrix(1.0,0.0,0.0,1.0,10.0,3.875)"><text id="ProcessOnText1024" fill="#000000" font-size="13" x="0.0" y="13.325" font-family="微软雅黑" font-weight="normal" font-style="normal" text-decoration="none" family="微软雅黑" text-anchor="start" size="13">htable - n..更多以表名命名的目录</text></g></g><g id="ProcessOnG1025" transform="matrix(1.0,0.0,0.0,1.0,303.0,32.0)" opacity="1.0"><path id="ProcessOnPath1026" d="M0.0 0.0L419.0 0.0L419.0 26.0L0.0 26.0Z" stroke="none" stroke-width="0.0" stroke-dasharray="none" opacity="1.0" fill="none"/><g id="ProcessOnG1027" transform="matrix(1.0,0.0,0.0,1.0,0.0,4.875)"><text id="ProcessOnText1028" fill="#000000" font-size="13" x="0.0" y="13.325" font-family="微软雅黑" font-weight="normal" font-style="normal" text-decoration="none" family="微软雅黑" text-anchor="start" size="13">本地存储或是HDFS</text></g></g><g id="ProcessOnG1029"><path id="ProcessOnPath1030" d="M246.0 200.0L289.5 200.0L289.5 233.82758620689657L317.7639320225002 233.82758620689657" stroke="#323232" stroke-width="2.0" stroke-dasharray="none" fill="none" marker-end="url(#ProcessOnMarker1031)"/></g><g id="ProcessOnG1033" transform="matrix(1.0,0.0,0.0,1.0,364.0,145.0)" opacity="1.0"><path id="ProcessOnPath1034" d="M0.0 0.0L322.0 0.0L322.0 68.0L0.0 68.0Z" stroke="#323232" stroke-width="2.0" stroke-dasharray="none" opacity="1.0" fill="#ffffff"/></g><g id="ProcessOnG1035" transform="matrix(1.0,0.0,0.0,1.0,368.0,145.0)" opacity="1.0"><path id="ProcessOnPath1036" d="M0.0 0.0L229.0 0.0L229.0 23.0L0.0 23.0Z" stroke="none" stroke-width="0.0" stroke-dasharray="none" opacity="1.0" fill="none"/><g id="ProcessOnG1037" transform="matrix(1.0,0.0,0.0,1.0,0.0,3.375)"><text id="ProcessOnText1038" fill="#000000" font-size="13" x="0.0" y="13.325" font-family="微软雅黑" font-weight="normal" font-style="normal" text-decoration="none" family="微软雅黑" text-anchor="start" size="13">保存0~9之间数据的region</text></g></g><g id="ProcessOnG1039" transform="matrix(1.0,0.0,0.0,1.0,368.0,174.0)" opacity="1.0"><path id="ProcessOnPath1040" d="M0.0 0.0L296.0 0.0L296.0 30.0L0.0 30.0Z" stroke="#323232" stroke-width="2.0" stroke-dasharray="none" opacity="1.0" fill="#ffffff"/><g id="ProcessOnG1041" transform="matrix(1.0,0.0,0.0,1.0,10.0,6.875)"><text id="ProcessOnText1042" fill="#000000" font-size="13" x="0.0" y="13.325" font-family="微软雅黑" font-weight="normal" font-style="normal" text-decoration="none" family="微软雅黑" text-anchor="start" size="13">以列族命名的目录，用于存储数据的最终目录</text></g></g><g id="ProcessOnG1043" transform="matrix(1.0,0.0,0.0,1.0,361.0,224.0)" opacity="1.0"><path id="ProcessOnPath1044" d="M0.0 0.0L328.0 0.0L328.0 57.0L0.0 57.0Z" stroke="#323232" stroke-width="2.0" stroke-dasharray="none" opacity="1.0" fill="#ffffff"/><g id="ProcessOnG1045" transform="matrix(1.0,0.0,0.0,1.0,10.0,20.375)"><text id="ProcessOnText1046" fill="#000000" font-size="13" x="153.0" y="13.325" font-family="微软雅黑" font-weight="normal" font-style="normal" text-decoration="none" family="微软雅黑" text-anchor="middle" size="13">同上，保存10~20之间的数据</text></g></g><g id="ProcessOnG1047" transform="matrix(1.0,0.0,0.0,1.0,361.0,291.0)" opacity="1.0"><path id="ProcessOnPath1048" d="M0.0 0.0L328.0 0.0L328.0 57.0L0.0 57.0Z" stroke="#323232" stroke-width="2.0" stroke-dasharray="none" opacity="1.0" fill="#ffffff"/><g id="ProcessOnG1049" transform="matrix(1.0,0.0,0.0,1.0,10.0,20.375)"><text id="ProcessOnText1050" fill="#000000" font-size="13" x="153.0" y="13.325" font-family="微软雅黑" font-weight="normal" font-style="normal" text-decoration="none" family="微软雅黑" text-anchor="middle" size="13">同上，保存21~以上的数据</text></g></g><g id="ProcessOnG1051" transform="matrix(1.0,0.0,0.0,1.0,742.0,98.5)" opacity="1.0"><path id="ProcessOnPath1052" d="M0.0 4.0Q0.0 0.0 4.0 0.0L119.0 0.0Q123.0 0.0 123.0 4.0L123.0 21.0Q123.0 25.0 119.0 25.0L4.0 25.0Q0.0 25.0 0.0 21.0Z" stroke="none" stroke-width="0.0" stroke-dasharray="none" opacity="1.0" fill="#ffffaa"/><g id="ProcessOnG1053" transform="matrix(1.0,0.0,0.0,1.0,10.0,4.375)"><text id="ProcessOnText1054" fill="#000000" font-size="13" x="50.5" y="13.325" font-family="微软雅黑" font-weight="normal" font-style="normal" text-decoration="none" family="微软雅黑" text-anchor="middle" size="13">region</text></g></g><g id="ProcessOnG1055" transform="matrix(1.0,0.0,0.0,1.0,747.0,176.5)" opacity="1.0"><path id="ProcessOnPath1056" d="M0.0 4.0Q0.0 0.0 4.0 0.0L119.0 0.0Q123.0 0.0 123.0 4.0L123.0 21.0Q123.0 25.0 119.0 25.0L4.0 25.0Q0.0 25.0 0.0 21.0Z" stroke="none" stroke-width="0.0" stroke-dasharray="none" opacity="1.0" fill="#ffffaa"/><g id="ProcessOnG1057" transform="matrix(1.0,0.0,0.0,1.0,10.0,4.375)"><text id="ProcessOnText1058" fill="#000000" font-size="13" x="50.5" y="13.325" font-family="微软雅黑" font-weight="normal" font-style="normal" text-decoration="none" family="微软雅黑" text-anchor="middle" size="13">store</text></g></g><g id="ProcessOnG1059" transform="matrix(1.0,0.0,0.0,1.0,750.0,232.0)" opacity="1.0"><path id="ProcessOnPath1060" d="M0.0 4.0Q0.0 0.0 4.0 0.0L119.0 0.0Q123.0 0.0 123.0 4.0L123.0 21.0Q123.0 25.0 119.0 25.0L4.0 25.0Q0.0 25.0 0.0 21.0Z" stroke="none" stroke-width="0.0" stroke-dasharray="none" opacity="1.0" fill="#ffffaa"/><g id="ProcessOnG1061" transform="matrix(1.0,0.0,0.0,1.0,10.0,4.375)"><text id="ProcessOnText1062" fill="#000000" font-size="13" x="50.5" y="13.325" font-family="微软雅黑" font-weight="normal" font-style="normal" text-decoration="none" family="微软雅黑" text-anchor="middle" size="13">Split</text></g></g><g id="ProcessOnG1063"><path id="ProcessOnPath1064" d="M873.0 244.5L903.0 244.5L903.0 111.0L880.2360679774998 111.0" stroke="#323232" stroke-width="2.0" stroke-dasharray="none" fill="none" marker-end="url(#ProcessOnMarker1065)"/><g id="ProcessOnG1067" transform="matrix(1.0,0.0,0.0,1.0,903.0,173.24303398874991)"><path id="ProcessOnPath1068" d="M0 0H26.0V16.25H0Z" fill="#fff" transform="matrix(1.0,0.0,0.0,1.0,-13.0,0.0)"/><text id="ProcessOnText1069" fill="#000000" font-size="13" x="0.0" y="13.325" font-family="微软雅黑" font-weight="normal" font-style="normal" text-decoration="none" family="微软雅黑" text-anchor="middle" size="13">策略</text></g></g><g id="ProcessOnG1070"><path id="ProcessOnPath1071" d="M747.0 189.0L705.5 189.0L705.5 189.0L679.2360679774998 189.0" stroke="#323232" stroke-width="2.0" stroke-dasharray="none" fill="none" marker-end="url(#ProcessOnMarker1072)"/></g><g id="ProcessOnG1074"><path id="ProcessOnPath1075" d="M742.0 111.0L714.0 111.0L714.0 171.0L701.2360679774998 171.0" stroke="#323232" stroke-width="2.0" stroke-dasharray="none" fill="none" marker-end="url(#ProcessOnMarker1076)"/></g></g></g></svg>